<mxfile host="Electron" modified="2024-07-25T08:22:38.180Z" agent="Mozilla/5.0 (Windows NT 10.0; Win64; x64) AppleWebKit/537.36 (KHTML, like Gecko) draw.io/22.0.3 Chrome/114.0.5735.289 Electron/25.8.4 Safari/537.36" etag="Xi9J9YDvdakBFDukTaoy" version="22.0.3" type="device">
  <diagram name="第 1 页" id="RDvXfn9-pOGlmbp0XaH7">
    <mxGraphModel dx="1206" dy="809" grid="1" gridSize="10" guides="1" tooltips="1" connect="1" arrows="1" fold="1" page="1" pageScale="1" pageWidth="1169" pageHeight="827" math="0" shadow="0">
      <root>
        <mxCell id="0" />
        <mxCell id="1" parent="0" />
        <mxCell id="-JBlQ_L1YeI0VU0V-A_F-47" value="" style="whiteSpace=wrap;html=1;" parent="1" vertex="1">
          <mxGeometry x="1770" y="330" width="50" height="390" as="geometry" />
        </mxCell>
        <mxCell id="ndIC5I_AzJB35ycjIniY-1" value="Hash" style="rounded=1;whiteSpace=wrap;html=1;arcSize=24;" parent="1" vertex="1">
          <mxGeometry x="210" y="490" width="40" height="20" as="geometry" />
        </mxCell>
        <mxCell id="lLi_zGoqGOGHD6lAQ_5c-2" value="PC" style="rounded=0;whiteSpace=wrap;html=1;fontSize=18;fontStyle=1" parent="1" vertex="1">
          <mxGeometry x="80" y="480" width="40" height="40" as="geometry" />
        </mxCell>
        <mxCell id="UtAcnQN8ZZuXLheafs30-14" style="edgeStyle=orthogonalEdgeStyle;rounded=0;orthogonalLoop=1;jettySize=auto;html=1;entryX=0.75;entryY=1;entryDx=0;entryDy=0;" parent="1" source="lLi_zGoqGOGHD6lAQ_5c-4" target="lLi_zGoqGOGHD6lAQ_5c-93" edge="1">
          <mxGeometry relative="1" as="geometry" />
        </mxCell>
        <mxCell id="lLi_zGoqGOGHD6lAQ_5c-4" value="BTB" style="rounded=0;whiteSpace=wrap;html=1;fontSize=18;" parent="1" vertex="1">
          <mxGeometry x="320" y="420" width="80" height="60" as="geometry" />
        </mxCell>
        <mxCell id="lLi_zGoqGOGHD6lAQ_5c-6" value="BHT" style="rounded=0;whiteSpace=wrap;html=1;fontSize=18;" parent="1" vertex="1">
          <mxGeometry x="320" y="520" width="80" height="60" as="geometry" />
        </mxCell>
        <mxCell id="lLi_zGoqGOGHD6lAQ_5c-13" value="8:0" style="endArrow=none;html=1;rounded=0;exitX=1;exitY=0.5;exitDx=0;exitDy=0;" parent="1" source="ndIC5I_AzJB35ycjIniY-1" edge="1">
          <mxGeometry width="50" height="50" relative="1" as="geometry">
            <mxPoint x="230" y="500" as="sourcePoint" />
            <mxPoint x="280" y="499.71" as="targetPoint" />
          </mxGeometry>
        </mxCell>
        <mxCell id="lLi_zGoqGOGHD6lAQ_5c-67" value="" style="group" parent="1" vertex="1" connectable="0">
          <mxGeometry x="360" y="240" width="50" height="90" as="geometry" />
        </mxCell>
        <mxCell id="lLi_zGoqGOGHD6lAQ_5c-61" value="" style="rounded=0;whiteSpace=wrap;html=1;fontSize=18;strokeWidth=2;" parent="lLi_zGoqGOGHD6lAQ_5c-67" vertex="1">
          <mxGeometry width="50" height="90" as="geometry" />
        </mxCell>
        <mxCell id="lLi_zGoqGOGHD6lAQ_5c-62" value="" style="edgeStyle=none;orthogonalLoop=1;jettySize=auto;html=1;rounded=0;endArrow=none;endFill=0;strokeWidth=2;" parent="lLi_zGoqGOGHD6lAQ_5c-67" edge="1">
          <mxGeometry width="80" relative="1" as="geometry">
            <mxPoint y="60.00000000000001" as="sourcePoint" />
            <mxPoint x="50" y="60.00000000000001" as="targetPoint" />
            <Array as="points" />
          </mxGeometry>
        </mxCell>
        <mxCell id="lLi_zGoqGOGHD6lAQ_5c-63" value="" style="edgeStyle=none;orthogonalLoop=1;jettySize=auto;html=1;rounded=0;endArrow=none;endFill=0;strokeWidth=2;" parent="lLi_zGoqGOGHD6lAQ_5c-67" edge="1">
          <mxGeometry width="80" relative="1" as="geometry">
            <mxPoint y="75.00000000000001" as="sourcePoint" />
            <mxPoint x="50" y="75.00000000000001" as="targetPoint" />
            <Array as="points" />
          </mxGeometry>
        </mxCell>
        <mxCell id="lLi_zGoqGOGHD6lAQ_5c-64" value="" style="edgeStyle=none;orthogonalLoop=1;jettySize=auto;html=1;rounded=0;endArrow=none;endFill=0;strokeWidth=2;" parent="lLi_zGoqGOGHD6lAQ_5c-67" edge="1">
          <mxGeometry width="80" relative="1" as="geometry">
            <mxPoint y="30.000000000000004" as="sourcePoint" />
            <mxPoint x="50" y="30.000000000000004" as="targetPoint" />
            <Array as="points" />
          </mxGeometry>
        </mxCell>
        <mxCell id="lLi_zGoqGOGHD6lAQ_5c-68" value="&lt;font style=&quot;font-size: 18px;&quot;&gt;RAS&lt;/font&gt;" style="text;strokeColor=none;align=center;fillColor=none;html=1;verticalAlign=middle;whiteSpace=wrap;rounded=0;" parent="lLi_zGoqGOGHD6lAQ_5c-67" vertex="1">
          <mxGeometry width="40" height="15.000000000000002" as="geometry" />
        </mxCell>
        <mxCell id="lLi_zGoqGOGHD6lAQ_5c-69" value="&lt;b style=&quot;font-size: 18px;&quot;&gt;&lt;font style=&quot;font-size: 18px;&quot;&gt;· · ·&lt;/font&gt;&lt;/b&gt;" style="text;align=center;html=1;verticalAlign=middle;whiteSpace=wrap;rounded=0;fontSize=18;" parent="lLi_zGoqGOGHD6lAQ_5c-67" vertex="1">
          <mxGeometry x="10" y="40" width="30" height="8" as="geometry" />
        </mxCell>
        <mxCell id="lLi_zGoqGOGHD6lAQ_5c-93" value="Comb" style="shape=trapezoid;perimeter=trapezoidPerimeter;whiteSpace=wrap;html=1;fixedSize=1;size=20;rotation=90;" parent="1" vertex="1">
          <mxGeometry x="545" y="360" width="115" height="40" as="geometry" />
        </mxCell>
        <mxCell id="UtAcnQN8ZZuXLheafs30-15" style="edgeStyle=orthogonalEdgeStyle;rounded=0;orthogonalLoop=1;jettySize=auto;html=1;entryX=1;entryY=0.5;entryDx=0;entryDy=0;" parent="1" source="lLi_zGoqGOGHD6lAQ_5c-103" target="lLi_zGoqGOGHD6lAQ_5c-93" edge="1">
          <mxGeometry relative="1" as="geometry" />
        </mxCell>
        <mxCell id="lLi_zGoqGOGHD6lAQ_5c-103" value="&lt;font style=&quot;font-size: 18px;&quot;&gt;PHT&lt;/font&gt;" style="rounded=0;whiteSpace=wrap;html=1;fontSize=18;" parent="1" vertex="1">
          <mxGeometry x="460" y="570" width="80" height="60" as="geometry" />
        </mxCell>
        <mxCell id="lLi_zGoqGOGHD6lAQ_5c-113" value="分支目标&amp;amp;分支信息表" style="text;strokeColor=none;align=center;fillColor=none;html=1;verticalAlign=middle;whiteSpace=wrap;rounded=0;" parent="1" vertex="1">
          <mxGeometry x="300" y="404" width="120" height="20" as="geometry" />
        </mxCell>
        <mxCell id="lLi_zGoqGOGHD6lAQ_5c-128" value="&lt;font style=&quot;font-size: 18px;&quot;&gt;update info&lt;/font&gt;" style="whiteSpace=wrap;html=1;fillColor=#60a917;fontColor=#ffffff;strokeColor=#2D7600;" parent="1" vertex="1">
          <mxGeometry x="750" y="140" width="110" height="40" as="geometry" />
        </mxCell>
        <mxCell id="lLi_zGoqGOGHD6lAQ_5c-138" value="Hash" style="rounded=1;whiteSpace=wrap;html=1;arcSize=24;fillColor=#60a917;fontColor=#ffffff;strokeColor=#2D7600;" parent="1" vertex="1">
          <mxGeometry x="270" y="340" width="40" height="20" as="geometry" />
        </mxCell>
        <mxCell id="ndIC5I_AzJB35ycjIniY-2" value="17:3" style="edgeStyle=none;orthogonalLoop=1;jettySize=auto;html=1;rounded=0;endArrow=none;endFill=0;entryX=0;entryY=0.5;entryDx=0;entryDy=0;" parent="1" target="ndIC5I_AzJB35ycjIniY-1" edge="1">
          <mxGeometry width="80" relative="1" as="geometry">
            <mxPoint x="180" y="499.93" as="sourcePoint" />
            <mxPoint x="200" y="499.93" as="targetPoint" />
            <Array as="points" />
          </mxGeometry>
        </mxCell>
        <mxCell id="UtAcnQN8ZZuXLheafs30-2" value="" style="edgeStyle=none;orthogonalLoop=1;jettySize=auto;html=1;rounded=0;endArrow=none;endFill=0;" parent="1" edge="1">
          <mxGeometry width="80" relative="1" as="geometry">
            <mxPoint x="160" y="500" as="sourcePoint" />
            <mxPoint x="180" y="500" as="targetPoint" />
            <Array as="points" />
          </mxGeometry>
        </mxCell>
        <mxCell id="UtAcnQN8ZZuXLheafs30-3" value="" style="edgeStyle=none;orthogonalLoop=1;jettySize=auto;html=1;rounded=0;endArrow=none;endFill=0;" parent="1" edge="1">
          <mxGeometry width="80" relative="1" as="geometry">
            <mxPoint x="280" y="550" as="sourcePoint" />
            <mxPoint x="280" y="450" as="targetPoint" />
            <Array as="points" />
          </mxGeometry>
        </mxCell>
        <mxCell id="UtAcnQN8ZZuXLheafs30-4" value="" style="edgeStyle=none;orthogonalLoop=1;jettySize=auto;html=1;rounded=0;entryX=0;entryY=0.5;entryDx=0;entryDy=0;" parent="1" target="lLi_zGoqGOGHD6lAQ_5c-6" edge="1">
          <mxGeometry width="80" relative="1" as="geometry">
            <mxPoint x="280" y="550" as="sourcePoint" />
            <mxPoint x="250" y="549.6" as="targetPoint" />
            <Array as="points" />
          </mxGeometry>
        </mxCell>
        <mxCell id="UtAcnQN8ZZuXLheafs30-5" value="" style="edgeStyle=none;orthogonalLoop=1;jettySize=auto;html=1;rounded=0;entryX=0;entryY=0.5;entryDx=0;entryDy=0;" parent="1" edge="1">
          <mxGeometry width="80" relative="1" as="geometry">
            <mxPoint x="280" y="450" as="sourcePoint" />
            <mxPoint x="320" y="450.2" as="targetPoint" />
            <Array as="points" />
          </mxGeometry>
        </mxCell>
        <mxCell id="UtAcnQN8ZZuXLheafs30-6" value="" style="edgeStyle=none;orthogonalLoop=1;jettySize=auto;html=1;rounded=0;endArrow=none;endFill=0;" parent="1" edge="1">
          <mxGeometry width="80" relative="1" as="geometry">
            <mxPoint x="160" y="500" as="sourcePoint" />
            <mxPoint x="120" y="500" as="targetPoint" />
            <Array as="points" />
          </mxGeometry>
        </mxCell>
        <mxCell id="UtAcnQN8ZZuXLheafs30-7" value="" style="edgeStyle=none;orthogonalLoop=1;jettySize=auto;html=1;rounded=0;endArrow=none;endFill=0;" parent="1" edge="1">
          <mxGeometry width="80" relative="1" as="geometry">
            <mxPoint x="160" y="380" as="sourcePoint" />
            <mxPoint x="160" y="680" as="targetPoint" />
            <Array as="points" />
          </mxGeometry>
        </mxCell>
        <mxCell id="UtAcnQN8ZZuXLheafs30-8" value="" style="edgeStyle=none;orthogonalLoop=1;jettySize=auto;html=1;rounded=0;" parent="1" edge="1">
          <mxGeometry width="80" relative="1" as="geometry">
            <mxPoint x="400" y="550" as="sourcePoint" />
            <mxPoint x="460" y="580" as="targetPoint" />
            <Array as="points">
              <mxPoint x="440" y="550" />
              <mxPoint x="440" y="580" />
            </Array>
          </mxGeometry>
        </mxCell>
        <mxCell id="UtAcnQN8ZZuXLheafs30-10" value="" style="edgeStyle=none;orthogonalLoop=1;jettySize=auto;html=1;rounded=0;" parent="1" edge="1">
          <mxGeometry width="80" relative="1" as="geometry">
            <mxPoint x="160" y="380" as="sourcePoint" />
            <mxPoint x="220" y="380" as="targetPoint" />
            <Array as="points" />
          </mxGeometry>
        </mxCell>
        <mxCell id="UtAcnQN8ZZuXLheafs30-12" style="edgeStyle=orthogonalEdgeStyle;rounded=0;orthogonalLoop=1;jettySize=auto;html=1;entryX=0.5;entryY=1;entryDx=0;entryDy=0;" parent="1" target="lLi_zGoqGOGHD6lAQ_5c-93" edge="1">
          <mxGeometry relative="1" as="geometry">
            <mxPoint x="580" y="379.75" as="targetPoint" />
            <mxPoint x="260" y="379.75" as="sourcePoint" />
          </mxGeometry>
        </mxCell>
        <mxCell id="UtAcnQN8ZZuXLheafs30-11" value="+4&lt;br&gt;+8" style="ellipse;whiteSpace=wrap;html=1;aspect=fixed;" parent="1" vertex="1">
          <mxGeometry x="220" y="360" width="40" height="40" as="geometry" />
        </mxCell>
        <mxCell id="UtAcnQN8ZZuXLheafs30-13" style="edgeStyle=orthogonalEdgeStyle;rounded=0;orthogonalLoop=1;jettySize=auto;html=1;entryX=0.25;entryY=1;entryDx=0;entryDy=0;" parent="1" source="lLi_zGoqGOGHD6lAQ_5c-61" target="lLi_zGoqGOGHD6lAQ_5c-93" edge="1">
          <mxGeometry relative="1" as="geometry" />
        </mxCell>
        <mxCell id="UtAcnQN8ZZuXLheafs30-16" value="" style="edgeStyle=none;orthogonalLoop=1;jettySize=auto;html=1;rounded=0;entryX=1;entryY=0.75;entryDx=0;entryDy=0;" parent="1" target="lLi_zGoqGOGHD6lAQ_5c-93" edge="1">
          <mxGeometry width="80" relative="1" as="geometry">
            <mxPoint x="400" y="460" as="sourcePoint" />
            <mxPoint x="480" y="460" as="targetPoint" />
            <Array as="points">
              <mxPoint x="593" y="460" />
            </Array>
          </mxGeometry>
        </mxCell>
        <mxCell id="UtAcnQN8ZZuXLheafs30-17" value="" style="edgeStyle=none;orthogonalLoop=1;jettySize=auto;html=1;rounded=0;entryX=1;entryY=0;entryDx=0;entryDy=0;" parent="1" target="lLi_zGoqGOGHD6lAQ_5c-93" edge="1">
          <mxGeometry width="80" relative="1" as="geometry">
            <mxPoint x="160" y="650" as="sourcePoint" />
            <mxPoint x="170" y="630" as="targetPoint" />
            <Array as="points">
              <mxPoint x="620" y="650" />
            </Array>
          </mxGeometry>
        </mxCell>
        <mxCell id="UtAcnQN8ZZuXLheafs30-19" value="" style="edgeStyle=none;orthogonalLoop=1;jettySize=auto;html=1;rounded=0;exitX=0.24;exitY=-0.012;exitDx=0;exitDy=0;entryX=0.5;entryY=0;entryDx=0;entryDy=0;exitPerimeter=0;" parent="1" source="lLi_zGoqGOGHD6lAQ_5c-93" target="lLi_zGoqGOGHD6lAQ_5c-2" edge="1">
          <mxGeometry width="80" relative="1" as="geometry">
            <mxPoint x="650" y="430" as="sourcePoint" />
            <mxPoint x="100" y="340" as="targetPoint" />
            <Array as="points">
              <mxPoint x="650" y="350" />
              <mxPoint x="650" y="200" />
              <mxPoint x="100" y="200" />
            </Array>
          </mxGeometry>
        </mxCell>
        <mxCell id="UtAcnQN8ZZuXLheafs30-20" value="" style="endArrow=classic;html=1;rounded=0;fillColor=#a20025;strokeColor=#6F0000;strokeWidth=5;exitX=0.5;exitY=0.75;exitDx=0;exitDy=0;exitPerimeter=0;opacity=0;" parent="1" source="lLi_zGoqGOGHD6lAQ_5c-2" edge="1">
          <mxGeometry width="50" height="50" relative="1" as="geometry">
            <mxPoint x="100" y="500" as="sourcePoint" />
            <mxPoint x="110" y="510" as="targetPoint" />
            <Array as="points">
              <mxPoint x="290" y="510" />
              <mxPoint x="290" y="560" />
              <mxPoint x="450" y="560" />
              <mxPoint x="450" y="610" />
              <mxPoint x="610" y="610" />
              <mxPoint x="610" y="360" />
              <mxPoint x="660" y="360" />
              <mxPoint x="660" y="210" />
              <mxPoint x="110" y="210" />
            </Array>
          </mxGeometry>
        </mxCell>
        <mxCell id="UtAcnQN8ZZuXLheafs30-23" value="" style="edgeStyle=none;orthogonalLoop=1;jettySize=auto;html=1;rounded=0;exitX=0;exitY=0.5;exitDx=0;exitDy=0;entryX=0;entryY=0.5;entryDx=0;entryDy=0;fillColor=#60a917;strokeColor=#4BC400;" parent="1" source="lLi_zGoqGOGHD6lAQ_5c-128" target="lLi_zGoqGOGHD6lAQ_5c-61" edge="1">
          <mxGeometry width="80" relative="1" as="geometry">
            <mxPoint x="580" y="140" as="sourcePoint" />
            <mxPoint x="290" y="320" as="targetPoint" />
            <Array as="points">
              <mxPoint x="290" y="160" />
              <mxPoint x="290" y="285" />
            </Array>
          </mxGeometry>
        </mxCell>
        <mxCell id="UtAcnQN8ZZuXLheafs30-24" value="" style="edgeStyle=none;orthogonalLoop=1;jettySize=auto;html=1;rounded=0;entryX=0.002;entryY=0.332;entryDx=0;entryDy=0;entryPerimeter=0;fillColor=#60a917;strokeColor=#4BC400;" parent="1" target="lLi_zGoqGOGHD6lAQ_5c-4" edge="1">
          <mxGeometry width="80" relative="1" as="geometry">
            <mxPoint x="290" y="360" as="sourcePoint" />
            <mxPoint x="390" y="310" as="targetPoint" />
            <Array as="points">
              <mxPoint x="290" y="440" />
            </Array>
          </mxGeometry>
        </mxCell>
        <mxCell id="UtAcnQN8ZZuXLheafs30-25" value="" style="edgeStyle=none;orthogonalLoop=1;jettySize=auto;html=1;rounded=0;entryX=-0.003;entryY=0.344;entryDx=0;entryDy=0;entryPerimeter=0;fillColor=#60a917;strokeColor=#4BC400;" parent="1" target="lLi_zGoqGOGHD6lAQ_5c-6" edge="1">
          <mxGeometry width="80" relative="1" as="geometry">
            <mxPoint x="290" y="440" as="sourcePoint" />
            <mxPoint x="330" y="450" as="targetPoint" />
            <Array as="points">
              <mxPoint x="290" y="540" />
            </Array>
          </mxGeometry>
        </mxCell>
        <mxCell id="UtAcnQN8ZZuXLheafs30-26" value="" style="edgeStyle=none;orthogonalLoop=1;jettySize=auto;html=1;rounded=0;entryX=0.25;entryY=0;entryDx=0;entryDy=0;fillColor=#60a917;strokeColor=#4BC400;" parent="1" target="lLi_zGoqGOGHD6lAQ_5c-103" edge="1">
          <mxGeometry width="80" relative="1" as="geometry">
            <mxPoint x="480" y="160" as="sourcePoint" />
            <mxPoint x="370" y="295" as="targetPoint" />
            <Array as="points" />
          </mxGeometry>
        </mxCell>
        <mxCell id="UtAcnQN8ZZuXLheafs30-27" value="target_pc" style="edgeStyle=none;orthogonalLoop=1;jettySize=auto;html=1;rounded=0;" parent="1" edge="1">
          <mxGeometry width="80" relative="1" as="geometry">
            <mxPoint x="620" y="380" as="sourcePoint" />
            <mxPoint x="850" y="380" as="targetPoint" />
            <Array as="points" />
          </mxGeometry>
        </mxCell>
        <mxCell id="UtAcnQN8ZZuXLheafs30-28" value="" style="edgeStyle=none;orthogonalLoop=1;jettySize=auto;html=1;rounded=0;endArrow=none;endFill=0;" parent="1" edge="1">
          <mxGeometry width="80" relative="1" as="geometry">
            <mxPoint x="160" y="680" as="sourcePoint" />
            <mxPoint x="640" y="410" as="targetPoint" />
            <Array as="points">
              <mxPoint x="640" y="680" />
            </Array>
          </mxGeometry>
        </mxCell>
        <mxCell id="UtAcnQN8ZZuXLheafs30-30" value="" style="edgeStyle=none;orthogonalLoop=1;jettySize=auto;html=1;rounded=0;endArrow=classic;endFill=1;entryX=0;entryY=0.75;entryDx=0;entryDy=0;" parent="1" target="lLi_zGoqGOGHD6lAQ_5c-103" edge="1">
          <mxGeometry width="80" relative="1" as="geometry">
            <mxPoint x="160" y="615" as="sourcePoint" />
            <mxPoint x="240" y="610" as="targetPoint" />
            <Array as="points" />
          </mxGeometry>
        </mxCell>
        <mxCell id="UtAcnQN8ZZuXLheafs30-31" value="pc" style="edgeStyle=none;orthogonalLoop=1;jettySize=auto;html=1;rounded=0;" parent="1" edge="1">
          <mxGeometry width="80" relative="1" as="geometry">
            <mxPoint x="640" y="410" as="sourcePoint" />
            <mxPoint x="850" y="410" as="targetPoint" />
            <Array as="points" />
          </mxGeometry>
        </mxCell>
        <mxCell id="ucKbbgJoVx4Ek9WTJv-t-1" value="" style="edgeStyle=none;orthogonalLoop=1;jettySize=auto;html=1;rounded=0;entryX=0.5;entryY=0;entryDx=0;entryDy=0;fillColor=#60a917;strokeColor=#4BC400;endArrow=none;endFill=0;" parent="1" target="lLi_zGoqGOGHD6lAQ_5c-138" edge="1">
          <mxGeometry width="80" relative="1" as="geometry">
            <mxPoint x="290" y="280" as="sourcePoint" />
            <mxPoint x="375" y="380" as="targetPoint" />
            <Array as="points" />
          </mxGeometry>
        </mxCell>
        <mxCell id="-JBlQ_L1YeI0VU0V-A_F-1" value="&lt;font style=&quot;font-size: 30px;&quot;&gt;一级流水&lt;/font&gt;" style="text;strokeColor=none;align=center;fillColor=none;html=1;verticalAlign=middle;whiteSpace=wrap;rounded=0;" parent="1" vertex="1">
          <mxGeometry x="70" y="50" width="140" height="30" as="geometry" />
        </mxCell>
        <mxCell id="-JBlQ_L1YeI0VU0V-A_F-2" value="Hash" style="rounded=1;whiteSpace=wrap;html=1;arcSize=24;" parent="1" vertex="1">
          <mxGeometry x="1330" y="510" width="40" height="20" as="geometry" />
        </mxCell>
        <mxCell id="-JBlQ_L1YeI0VU0V-A_F-3" value="PC" style="rounded=0;whiteSpace=wrap;html=1;fontSize=18;fontStyle=1" parent="1" vertex="1">
          <mxGeometry x="1200" y="500" width="40" height="40" as="geometry" />
        </mxCell>
        <mxCell id="-JBlQ_L1YeI0VU0V-A_F-5" value="BTB" style="rounded=0;whiteSpace=wrap;html=1;fontSize=18;" parent="1" vertex="1">
          <mxGeometry x="1440" y="440" width="80" height="60" as="geometry" />
        </mxCell>
        <mxCell id="-JBlQ_L1YeI0VU0V-A_F-6" value="BHT" style="rounded=0;whiteSpace=wrap;html=1;fontSize=18;" parent="1" vertex="1">
          <mxGeometry x="1440" y="540" width="80" height="60" as="geometry" />
        </mxCell>
        <mxCell id="-JBlQ_L1YeI0VU0V-A_F-7" value="8:0" style="endArrow=none;html=1;rounded=0;exitX=1;exitY=0.5;exitDx=0;exitDy=0;" parent="1" source="-JBlQ_L1YeI0VU0V-A_F-2" edge="1">
          <mxGeometry width="50" height="50" relative="1" as="geometry">
            <mxPoint x="1350" y="520" as="sourcePoint" />
            <mxPoint x="1400" y="519.71" as="targetPoint" />
          </mxGeometry>
        </mxCell>
        <mxCell id="-JBlQ_L1YeI0VU0V-A_F-8" value="" style="group" parent="1" vertex="1" connectable="0">
          <mxGeometry x="1850" y="310" width="50" height="90" as="geometry" />
        </mxCell>
        <mxCell id="-JBlQ_L1YeI0VU0V-A_F-9" value="" style="rounded=0;whiteSpace=wrap;html=1;fontSize=18;strokeWidth=2;" parent="-JBlQ_L1YeI0VU0V-A_F-8" vertex="1">
          <mxGeometry width="50" height="90" as="geometry" />
        </mxCell>
        <mxCell id="-JBlQ_L1YeI0VU0V-A_F-10" value="" style="edgeStyle=none;orthogonalLoop=1;jettySize=auto;html=1;rounded=0;endArrow=none;endFill=0;strokeWidth=2;" parent="-JBlQ_L1YeI0VU0V-A_F-8" edge="1">
          <mxGeometry width="80" relative="1" as="geometry">
            <mxPoint y="60.00000000000001" as="sourcePoint" />
            <mxPoint x="50" y="60.00000000000001" as="targetPoint" />
            <Array as="points" />
          </mxGeometry>
        </mxCell>
        <mxCell id="-JBlQ_L1YeI0VU0V-A_F-11" value="" style="edgeStyle=none;orthogonalLoop=1;jettySize=auto;html=1;rounded=0;endArrow=none;endFill=0;strokeWidth=2;" parent="-JBlQ_L1YeI0VU0V-A_F-8" edge="1">
          <mxGeometry width="80" relative="1" as="geometry">
            <mxPoint y="75.00000000000001" as="sourcePoint" />
            <mxPoint x="50" y="75.00000000000001" as="targetPoint" />
            <Array as="points" />
          </mxGeometry>
        </mxCell>
        <mxCell id="-JBlQ_L1YeI0VU0V-A_F-12" value="" style="edgeStyle=none;orthogonalLoop=1;jettySize=auto;html=1;rounded=0;endArrow=none;endFill=0;strokeWidth=2;" parent="-JBlQ_L1YeI0VU0V-A_F-8" edge="1">
          <mxGeometry width="80" relative="1" as="geometry">
            <mxPoint y="30.000000000000004" as="sourcePoint" />
            <mxPoint x="50" y="30.000000000000004" as="targetPoint" />
            <Array as="points" />
          </mxGeometry>
        </mxCell>
        <mxCell id="-JBlQ_L1YeI0VU0V-A_F-13" value="&lt;font style=&quot;font-size: 18px;&quot;&gt;RAS&lt;/font&gt;" style="text;strokeColor=none;align=center;fillColor=none;html=1;verticalAlign=middle;whiteSpace=wrap;rounded=0;" parent="-JBlQ_L1YeI0VU0V-A_F-8" vertex="1">
          <mxGeometry width="40" height="15.000000000000002" as="geometry" />
        </mxCell>
        <mxCell id="-JBlQ_L1YeI0VU0V-A_F-14" value="&lt;b style=&quot;font-size: 18px;&quot;&gt;&lt;font style=&quot;font-size: 18px;&quot;&gt;· · ·&lt;/font&gt;&lt;/b&gt;" style="text;align=center;html=1;verticalAlign=middle;whiteSpace=wrap;rounded=0;fontSize=18;" parent="-JBlQ_L1YeI0VU0V-A_F-8" vertex="1">
          <mxGeometry x="10" y="40" width="30" height="8" as="geometry" />
        </mxCell>
        <mxCell id="-JBlQ_L1YeI0VU0V-A_F-15" value="Comb" style="shape=trapezoid;perimeter=trapezoidPerimeter;whiteSpace=wrap;html=1;fixedSize=1;size=20;rotation=0;" parent="1" vertex="1">
          <mxGeometry x="1520" y="350" width="115" height="40" as="geometry" />
        </mxCell>
        <mxCell id="-JBlQ_L1YeI0VU0V-A_F-17" value="&lt;font style=&quot;font-size: 18px;&quot;&gt;PHT&lt;/font&gt;" style="rounded=0;whiteSpace=wrap;html=1;fontSize=18;" parent="1" vertex="1">
          <mxGeometry x="1880" y="540" width="80" height="60" as="geometry" />
        </mxCell>
        <mxCell id="-JBlQ_L1YeI0VU0V-A_F-18" value="分支目标&amp;amp;分支信息表" style="text;strokeColor=none;align=center;fillColor=none;html=1;verticalAlign=middle;whiteSpace=wrap;rounded=0;" parent="1" vertex="1">
          <mxGeometry x="1420" y="424" width="120" height="20" as="geometry" />
        </mxCell>
        <mxCell id="-JBlQ_L1YeI0VU0V-A_F-19" value="&lt;font style=&quot;font-size: 18px;&quot;&gt;update info&lt;/font&gt;" style="whiteSpace=wrap;html=1;fillColor=#60a917;fontColor=#ffffff;strokeColor=#2D7600;" parent="1" vertex="1">
          <mxGeometry x="2004.5" y="130" width="110" height="40" as="geometry" />
        </mxCell>
        <mxCell id="-JBlQ_L1YeI0VU0V-A_F-20" value="Hash" style="rounded=1;whiteSpace=wrap;html=1;arcSize=24;fillColor=#60a917;fontColor=#ffffff;strokeColor=#2D7600;" parent="1" vertex="1">
          <mxGeometry x="1904.5" y="140" width="40" height="20" as="geometry" />
        </mxCell>
        <mxCell id="-JBlQ_L1YeI0VU0V-A_F-21" value="17:3" style="edgeStyle=none;orthogonalLoop=1;jettySize=auto;html=1;rounded=0;endArrow=none;endFill=0;entryX=0;entryY=0.5;entryDx=0;entryDy=0;" parent="1" target="-JBlQ_L1YeI0VU0V-A_F-2" edge="1">
          <mxGeometry width="80" relative="1" as="geometry">
            <mxPoint x="1300" y="519.9300000000001" as="sourcePoint" />
            <mxPoint x="1320" y="519.9300000000001" as="targetPoint" />
            <Array as="points" />
          </mxGeometry>
        </mxCell>
        <mxCell id="-JBlQ_L1YeI0VU0V-A_F-22" value="" style="edgeStyle=none;orthogonalLoop=1;jettySize=auto;html=1;rounded=0;endArrow=none;endFill=0;" parent="1" edge="1">
          <mxGeometry width="80" relative="1" as="geometry">
            <mxPoint x="1280" y="520" as="sourcePoint" />
            <mxPoint x="1300" y="520" as="targetPoint" />
            <Array as="points" />
          </mxGeometry>
        </mxCell>
        <mxCell id="-JBlQ_L1YeI0VU0V-A_F-23" value="" style="edgeStyle=none;orthogonalLoop=1;jettySize=auto;html=1;rounded=0;endArrow=none;endFill=0;" parent="1" edge="1">
          <mxGeometry width="80" relative="1" as="geometry">
            <mxPoint x="1400" y="570" as="sourcePoint" />
            <mxPoint x="1400" y="470" as="targetPoint" />
            <Array as="points" />
          </mxGeometry>
        </mxCell>
        <mxCell id="-JBlQ_L1YeI0VU0V-A_F-24" value="" style="edgeStyle=none;orthogonalLoop=1;jettySize=auto;html=1;rounded=0;entryX=0;entryY=0.5;entryDx=0;entryDy=0;" parent="1" target="-JBlQ_L1YeI0VU0V-A_F-6" edge="1">
          <mxGeometry width="80" relative="1" as="geometry">
            <mxPoint x="1400" y="570" as="sourcePoint" />
            <mxPoint x="1370" y="569.6" as="targetPoint" />
            <Array as="points" />
          </mxGeometry>
        </mxCell>
        <mxCell id="-JBlQ_L1YeI0VU0V-A_F-25" value="" style="edgeStyle=none;orthogonalLoop=1;jettySize=auto;html=1;rounded=0;entryX=0;entryY=0.5;entryDx=0;entryDy=0;" parent="1" edge="1">
          <mxGeometry width="80" relative="1" as="geometry">
            <mxPoint x="1400" y="470" as="sourcePoint" />
            <mxPoint x="1440" y="470.2" as="targetPoint" />
            <Array as="points" />
          </mxGeometry>
        </mxCell>
        <mxCell id="-JBlQ_L1YeI0VU0V-A_F-26" value="" style="edgeStyle=none;orthogonalLoop=1;jettySize=auto;html=1;rounded=0;endArrow=none;endFill=0;" parent="1" edge="1">
          <mxGeometry width="80" relative="1" as="geometry">
            <mxPoint x="1280" y="520" as="sourcePoint" />
            <mxPoint x="1240" y="520" as="targetPoint" />
            <Array as="points" />
          </mxGeometry>
        </mxCell>
        <mxCell id="-JBlQ_L1YeI0VU0V-A_F-27" value="" style="edgeStyle=none;orthogonalLoop=1;jettySize=auto;html=1;rounded=0;endArrow=none;endFill=0;" parent="1" edge="1">
          <mxGeometry width="80" relative="1" as="geometry">
            <mxPoint x="1280" y="420" as="sourcePoint" />
            <mxPoint x="1280" y="620" as="targetPoint" />
            <Array as="points" />
          </mxGeometry>
        </mxCell>
        <mxCell id="-JBlQ_L1YeI0VU0V-A_F-28" value="" style="edgeStyle=none;orthogonalLoop=1;jettySize=auto;html=1;rounded=0;endArrow=none;endFill=0;" parent="1" edge="1">
          <mxGeometry width="80" relative="1" as="geometry">
            <mxPoint x="1520" y="570" as="sourcePoint" />
            <mxPoint x="1670" y="620" as="targetPoint" />
            <Array as="points">
              <mxPoint x="1670" y="570" />
            </Array>
          </mxGeometry>
        </mxCell>
        <mxCell id="-JBlQ_L1YeI0VU0V-A_F-29" value="" style="edgeStyle=none;orthogonalLoop=1;jettySize=auto;html=1;rounded=0;" parent="1" edge="1">
          <mxGeometry width="80" relative="1" as="geometry">
            <mxPoint x="1280" y="420" as="sourcePoint" />
            <mxPoint x="1340" y="420" as="targetPoint" />
            <Array as="points" />
          </mxGeometry>
        </mxCell>
        <mxCell id="-JBlQ_L1YeI0VU0V-A_F-58" style="edgeStyle=orthogonalEdgeStyle;rounded=0;orthogonalLoop=1;jettySize=auto;html=1;entryX=0.25;entryY=1;entryDx=0;entryDy=0;" parent="1" source="-JBlQ_L1YeI0VU0V-A_F-31" target="-JBlQ_L1YeI0VU0V-A_F-15" edge="1">
          <mxGeometry relative="1" as="geometry" />
        </mxCell>
        <mxCell id="-JBlQ_L1YeI0VU0V-A_F-31" value="+4&lt;br&gt;+8" style="ellipse;whiteSpace=wrap;html=1;aspect=fixed;" parent="1" vertex="1">
          <mxGeometry x="1340" y="400" width="40" height="40" as="geometry" />
        </mxCell>
        <mxCell id="-JBlQ_L1YeI0VU0V-A_F-35" value="" style="edgeStyle=none;orthogonalLoop=1;jettySize=auto;html=1;rounded=0;exitX=0.5;exitY=0;exitDx=0;exitDy=0;entryX=0.5;entryY=0;entryDx=0;entryDy=0;" parent="1" source="-JBlQ_L1YeI0VU0V-A_F-15" target="-JBlQ_L1YeI0VU0V-A_F-3" edge="1">
          <mxGeometry width="80" relative="1" as="geometry">
            <mxPoint x="1770" y="450" as="sourcePoint" />
            <mxPoint x="1220" y="360" as="targetPoint" />
            <Array as="points">
              <mxPoint x="1578" y="340" />
              <mxPoint x="1220" y="340" />
            </Array>
          </mxGeometry>
        </mxCell>
        <mxCell id="-JBlQ_L1YeI0VU0V-A_F-43" value="" style="edgeStyle=none;orthogonalLoop=1;jettySize=auto;html=1;rounded=0;endArrow=none;endFill=0;" parent="1" edge="1">
          <mxGeometry width="80" relative="1" as="geometry">
            <mxPoint x="1280" y="620" as="sourcePoint" />
            <mxPoint x="1670" y="620" as="targetPoint" />
            <Array as="points" />
          </mxGeometry>
        </mxCell>
        <mxCell id="-JBlQ_L1YeI0VU0V-A_F-49" value="" style="edgeStyle=none;orthogonalLoop=1;jettySize=auto;html=1;rounded=0;" parent="1" edge="1">
          <mxGeometry width="80" relative="1" as="geometry">
            <mxPoint x="1670" y="569.9999999999999" as="sourcePoint" />
            <mxPoint x="1770" y="569.9999999999999" as="targetPoint" />
            <Array as="points" />
          </mxGeometry>
        </mxCell>
        <mxCell id="-JBlQ_L1YeI0VU0V-A_F-50" value="" style="edgeStyle=none;orthogonalLoop=1;jettySize=auto;html=1;rounded=0;" parent="1" edge="1">
          <mxGeometry width="80" relative="1" as="geometry">
            <mxPoint x="1820" y="569.57" as="sourcePoint" />
            <mxPoint x="1880" y="570" as="targetPoint" />
            <Array as="points" />
          </mxGeometry>
        </mxCell>
        <mxCell id="-JBlQ_L1YeI0VU0V-A_F-51" value="" style="edgeStyle=none;orthogonalLoop=1;jettySize=auto;html=1;rounded=0;" parent="1" edge="1">
          <mxGeometry width="80" relative="1" as="geometry">
            <mxPoint x="1550" y="420" as="sourcePoint" />
            <mxPoint x="1770" y="420" as="targetPoint" />
            <Array as="points" />
          </mxGeometry>
        </mxCell>
        <mxCell id="-JBlQ_L1YeI0VU0V-A_F-52" value="" style="edgeStyle=none;orthogonalLoop=1;jettySize=auto;html=1;rounded=0;exitX=1.031;exitY=0.375;exitDx=0;exitDy=0;exitPerimeter=0;entryX=0.5;entryY=1;entryDx=0;entryDy=0;" parent="1" source="-JBlQ_L1YeI0VU0V-A_F-47" target="-JBlQ_L1YeI0VU0V-A_F-57" edge="1">
          <mxGeometry width="80" relative="1" as="geometry">
            <mxPoint x="1820" y="400" as="sourcePoint" />
            <mxPoint x="2010" y="300" as="targetPoint" />
            <Array as="points">
              <mxPoint x="2010" y="420" />
            </Array>
          </mxGeometry>
        </mxCell>
        <mxCell id="-JBlQ_L1YeI0VU0V-A_F-54" value="" style="edgeStyle=none;orthogonalLoop=1;jettySize=auto;html=1;rounded=0;entryX=0.75;entryY=1;entryDx=0;entryDy=0;" parent="1" target="-JBlQ_L1YeI0VU0V-A_F-57" edge="1">
          <mxGeometry width="80" relative="1" as="geometry">
            <mxPoint x="1820" y="469.71" as="sourcePoint" />
            <mxPoint x="2040" y="300" as="targetPoint" />
            <Array as="points">
              <mxPoint x="2040" y="470" />
            </Array>
          </mxGeometry>
        </mxCell>
        <mxCell id="-JBlQ_L1YeI0VU0V-A_F-55" value="" style="edgeStyle=none;orthogonalLoop=1;jettySize=auto;html=1;rounded=0;" parent="1" edge="1">
          <mxGeometry width="80" relative="1" as="geometry">
            <mxPoint x="1600" y="470" as="sourcePoint" />
            <mxPoint x="1770" y="470" as="targetPoint" />
            <Array as="points" />
          </mxGeometry>
        </mxCell>
        <mxCell id="-JBlQ_L1YeI0VU0V-A_F-56" value="" style="edgeStyle=none;orthogonalLoop=1;jettySize=auto;html=1;rounded=0;entryX=0.25;entryY=1;entryDx=0;entryDy=0;" parent="1" target="-JBlQ_L1YeI0VU0V-A_F-57" edge="1">
          <mxGeometry width="80" relative="1" as="geometry">
            <mxPoint x="1900" y="360" as="sourcePoint" />
            <mxPoint x="1980" y="330" as="targetPoint" />
            <Array as="points">
              <mxPoint x="1980" y="360" />
            </Array>
          </mxGeometry>
        </mxCell>
        <mxCell id="-JBlQ_L1YeI0VU0V-A_F-57" value="Comb" style="shape=trapezoid;perimeter=trapezoidPerimeter;whiteSpace=wrap;html=1;fixedSize=1;size=20;rotation=0;" parent="1" vertex="1">
          <mxGeometry x="1952" y="300" width="115" height="40" as="geometry" />
        </mxCell>
        <mxCell id="-JBlQ_L1YeI0VU0V-A_F-60" value="" style="edgeStyle=none;orthogonalLoop=1;jettySize=auto;html=1;rounded=0;exitX=1;exitY=0.5;exitDx=0;exitDy=0;entryX=0.688;entryY=1.036;entryDx=0;entryDy=0;entryPerimeter=0;" parent="1" source="-JBlQ_L1YeI0VU0V-A_F-5" target="-JBlQ_L1YeI0VU0V-A_F-15" edge="1">
          <mxGeometry width="80" relative="1" as="geometry">
            <mxPoint x="1540" y="470" as="sourcePoint" />
            <mxPoint x="1620" y="470" as="targetPoint" />
            <Array as="points">
              <mxPoint x="1600" y="470" />
            </Array>
          </mxGeometry>
        </mxCell>
        <mxCell id="-JBlQ_L1YeI0VU0V-A_F-61" value="" style="edgeStyle=none;orthogonalLoop=1;jettySize=auto;html=1;rounded=0;entryX=1;entryY=0.75;entryDx=0;entryDy=0;" parent="1" target="-JBlQ_L1YeI0VU0V-A_F-15" edge="1">
          <mxGeometry width="80" relative="1" as="geometry">
            <mxPoint x="1660" y="490" as="sourcePoint" />
            <mxPoint x="1670" y="390" as="targetPoint" />
            <Array as="points">
              <mxPoint x="1660" y="485" />
              <mxPoint x="1660" y="380" />
            </Array>
          </mxGeometry>
        </mxCell>
        <mxCell id="-JBlQ_L1YeI0VU0V-A_F-62" value="branch_type" style="edgeStyle=none;orthogonalLoop=1;jettySize=auto;html=1;rounded=0;endArrow=none;endFill=0;" parent="1" edge="1">
          <mxGeometry width="80" relative="1" as="geometry">
            <mxPoint x="1520" y="489.6" as="sourcePoint" />
            <mxPoint x="1660" y="490" as="targetPoint" />
            <Array as="points" />
          </mxGeometry>
        </mxCell>
        <mxCell id="-JBlQ_L1YeI0VU0V-A_F-63" value="" style="edgeStyle=none;orthogonalLoop=1;jettySize=auto;html=1;rounded=0;" parent="1" edge="1">
          <mxGeometry width="80" relative="1" as="geometry">
            <mxPoint x="1660" y="490" as="sourcePoint" />
            <mxPoint x="1770" y="490" as="targetPoint" />
            <Array as="points" />
          </mxGeometry>
        </mxCell>
        <mxCell id="-JBlQ_L1YeI0VU0V-A_F-64" value="" style="edgeStyle=none;orthogonalLoop=1;jettySize=auto;html=1;rounded=0;entryX=1;entryY=0.75;entryDx=0;entryDy=0;" parent="1" target="-JBlQ_L1YeI0VU0V-A_F-57" edge="1">
          <mxGeometry width="80" relative="1" as="geometry">
            <mxPoint x="1820" y="490" as="sourcePoint" />
            <mxPoint x="1930" y="490" as="targetPoint" />
            <Array as="points">
              <mxPoint x="2080" y="490" />
              <mxPoint x="2080" y="330" />
            </Array>
          </mxGeometry>
        </mxCell>
        <mxCell id="-JBlQ_L1YeI0VU0V-A_F-66" value="" style="edgeStyle=none;orthogonalLoop=1;jettySize=auto;html=1;rounded=0;entryX=1;entryY=0.25;entryDx=0;entryDy=0;" parent="1" target="-JBlQ_L1YeI0VU0V-A_F-57" edge="1">
          <mxGeometry width="80" relative="1" as="geometry">
            <mxPoint x="1960" y="570" as="sourcePoint" />
            <mxPoint x="2040" y="570" as="targetPoint" />
            <Array as="points">
              <mxPoint x="2120" y="570" />
              <mxPoint x="2120" y="310" />
            </Array>
          </mxGeometry>
        </mxCell>
        <mxCell id="-JBlQ_L1YeI0VU0V-A_F-67" value="" style="edgeStyle=none;orthogonalLoop=1;jettySize=auto;html=1;rounded=0;exitX=1.04;exitY=0.239;exitDx=0;exitDy=0;exitPerimeter=0;entryX=0.5;entryY=1;entryDx=0;entryDy=0;" parent="1" source="-JBlQ_L1YeI0VU0V-A_F-47" target="-JBlQ_L1YeI0VU0V-A_F-57" edge="1">
          <mxGeometry width="80" relative="1" as="geometry">
            <mxPoint x="1820" y="400" as="sourcePoint" />
            <mxPoint x="2010" y="300" as="targetPoint" />
            <Array as="points">
              <mxPoint x="2010" y="420" />
            </Array>
          </mxGeometry>
        </mxCell>
        <mxCell id="-JBlQ_L1YeI0VU0V-A_F-68" value="" style="edgeStyle=none;orthogonalLoop=1;jettySize=auto;html=1;rounded=0;exitX=0.5;exitY=0;exitDx=0;exitDy=0;entryX=0.25;entryY=0;entryDx=0;entryDy=0;" parent="1" source="-JBlQ_L1YeI0VU0V-A_F-57" target="-JBlQ_L1YeI0VU0V-A_F-3" edge="1">
          <mxGeometry width="80" relative="1" as="geometry">
            <mxPoint x="1600" y="250" as="sourcePoint" />
            <mxPoint x="1680" y="250" as="targetPoint" />
            <Array as="points">
              <mxPoint x="2010" y="280" />
              <mxPoint x="1210" y="280" />
            </Array>
          </mxGeometry>
        </mxCell>
        <mxCell id="-JBlQ_L1YeI0VU0V-A_F-69" value="" style="edgeStyle=none;orthogonalLoop=1;jettySize=auto;html=1;rounded=0;entryX=0.033;entryY=0.844;entryDx=0;entryDy=0;entryPerimeter=0;" parent="1" target="-JBlQ_L1YeI0VU0V-A_F-47" edge="1">
          <mxGeometry width="80" relative="1" as="geometry">
            <mxPoint x="1280" y="620" as="sourcePoint" />
            <mxPoint x="1610" y="690" as="targetPoint" />
            <Array as="points">
              <mxPoint x="1280" y="660" />
            </Array>
          </mxGeometry>
        </mxCell>
        <mxCell id="-JBlQ_L1YeI0VU0V-A_F-70" value="" style="edgeStyle=none;orthogonalLoop=1;jettySize=auto;html=1;rounded=0;" parent="1" edge="1">
          <mxGeometry width="80" relative="1" as="geometry">
            <mxPoint x="1820" y="660" as="sourcePoint" />
            <mxPoint x="1900" y="660" as="targetPoint" />
            <Array as="points" />
          </mxGeometry>
        </mxCell>
        <mxCell id="-JBlQ_L1YeI0VU0V-A_F-72" value="&lt;font style=&quot;font-size: 24px;&quot;&gt;ICACHE&lt;/font&gt;" style="whiteSpace=wrap;html=1;" parent="1" vertex="1">
          <mxGeometry x="1900" y="610" width="150" height="120" as="geometry" />
        </mxCell>
        <mxCell id="SOd62JZWgCN5nZAIgIvj-1" value="&lt;font style=&quot;font-size: 30px;&quot;&gt;两级流水&lt;/font&gt;" style="text;strokeColor=none;align=center;fillColor=none;html=1;verticalAlign=middle;whiteSpace=wrap;rounded=0;" parent="1" vertex="1">
          <mxGeometry x="1200" y="50" width="140" height="30" as="geometry" />
        </mxCell>
      </root>
    </mxGraphModel>
  </diagram>
</mxfile>
